<mxfile host="app.diagrams.net" modified="2023-12-08T14:16:39.232Z" agent="Mozilla/5.0 (X11; Linux x86_64) AppleWebKit/537.36 (KHTML, like Gecko) Chrome/119.0.0.0 Safari/537.36" etag="6qydbbbJ3_ZD7DqPOtUE" version="22.1.7" type="device">
  <diagram name="Page-1" id="eW5M3oyS7mrbm0oHzOG0">
    <mxGraphModel dx="1434" dy="782" grid="1" gridSize="10" guides="1" tooltips="1" connect="1" arrows="1" fold="1" page="1" pageScale="1" pageWidth="850" pageHeight="1100" math="0" shadow="0">
      <root>
        <mxCell id="0" />
        <mxCell id="1" parent="0" />
        <mxCell id="dQye1qdH2Gw97mPW6RtZ-1" value="EC2 instance contents" style="points=[[0,0],[0.25,0],[0.5,0],[0.75,0],[1,0],[1,0.25],[1,0.5],[1,0.75],[1,1],[0.75,1],[0.5,1],[0.25,1],[0,1],[0,0.75],[0,0.5],[0,0.25]];outlineConnect=0;gradientColor=none;html=1;whiteSpace=wrap;fontSize=12;fontStyle=0;container=1;pointerEvents=0;collapsible=0;recursiveResize=0;shape=mxgraph.aws4.group;grIcon=mxgraph.aws4.group_ec2_instance_contents;strokeColor=#D86613;fillColor=none;verticalAlign=top;align=left;spacingLeft=30;fontColor=#D86613;dashed=0;" vertex="1" parent="1">
          <mxGeometry x="160" y="120" width="520" height="400" as="geometry" />
        </mxCell>
        <mxCell id="dQye1qdH2Gw97mPW6RtZ-4" value="" style="rounded=1;arcSize=10;strokeColor=#6c8ebf;fillColor=#dae8fc;" vertex="1" parent="dQye1qdH2Gw97mPW6RtZ-1">
          <mxGeometry x="40" y="40" width="320" height="320" as="geometry" />
        </mxCell>
        <mxCell id="dQye1qdH2Gw97mPW6RtZ-2" value="" style="image;sketch=0;aspect=fixed;html=1;points=[];align=center;fontSize=12;image=img/lib/mscae/Docker.svg;" vertex="1" parent="dQye1qdH2Gw97mPW6RtZ-1">
          <mxGeometry x="106.46" y="290" width="67.08" height="55" as="geometry" />
        </mxCell>
        <mxCell id="dQye1qdH2Gw97mPW6RtZ-5" value="Wordpress" style="rounded=1;whiteSpace=wrap;html=1;" vertex="1" parent="dQye1qdH2Gw97mPW6RtZ-1">
          <mxGeometry x="80" y="70" width="120" height="60" as="geometry" />
        </mxCell>
        <mxCell id="dQye1qdH2Gw97mPW6RtZ-6" value="PhpMyAdmin" style="rounded=1;whiteSpace=wrap;html=1;" vertex="1" parent="dQye1qdH2Gw97mPW6RtZ-1">
          <mxGeometry x="80" y="210" width="120" height="60" as="geometry" />
        </mxCell>
        <mxCell id="dQye1qdH2Gw97mPW6RtZ-7" value="WP-Cli" style="rounded=1;whiteSpace=wrap;html=1;" vertex="1" parent="dQye1qdH2Gw97mPW6RtZ-1">
          <mxGeometry x="80" y="140" width="120" height="60" as="geometry" />
        </mxCell>
        <mxCell id="dQye1qdH2Gw97mPW6RtZ-8" value="" style="html=1;verticalLabelPosition=bottom;align=center;labelBackgroundColor=#ffffff;verticalAlign=top;strokeWidth=2;strokeColor=#0080F0;shadow=0;dashed=0;shape=mxgraph.ios7.icons.folder;" vertex="1" parent="dQye1qdH2Gw97mPW6RtZ-1">
          <mxGeometry x="410" y="80.13" width="50" height="39.75" as="geometry" />
        </mxCell>
        <mxCell id="dQye1qdH2Gw97mPW6RtZ-9" value="" style="endArrow=classic;html=1;rounded=0;exitX=1;exitY=0.5;exitDx=0;exitDy=0;entryX=0;entryY=0.497;entryDx=0;entryDy=0;entryPerimeter=0;" edge="1" parent="dQye1qdH2Gw97mPW6RtZ-1" source="dQye1qdH2Gw97mPW6RtZ-5" target="dQye1qdH2Gw97mPW6RtZ-8">
          <mxGeometry width="50" height="50" relative="1" as="geometry">
            <mxPoint x="240" y="310" as="sourcePoint" />
            <mxPoint x="280" y="100" as="targetPoint" />
          </mxGeometry>
        </mxCell>
        <mxCell id="dQye1qdH2Gw97mPW6RtZ-15" value="/var/www/html" style="edgeLabel;html=1;align=center;verticalAlign=middle;resizable=0;points=[];" vertex="1" connectable="0" parent="dQye1qdH2Gw97mPW6RtZ-9">
          <mxGeometry x="-0.075" y="-2" relative="1" as="geometry">
            <mxPoint x="-17" y="-12" as="offset" />
          </mxGeometry>
        </mxCell>
        <mxCell id="dQye1qdH2Gw97mPW6RtZ-11" value="" style="edgeStyle=segmentEdgeStyle;endArrow=classic;html=1;curved=0;rounded=0;endSize=8;startSize=8;exitX=1;exitY=0.5;exitDx=0;exitDy=0;" edge="1" parent="dQye1qdH2Gw97mPW6RtZ-1" source="dQye1qdH2Gw97mPW6RtZ-7" target="dQye1qdH2Gw97mPW6RtZ-8">
          <mxGeometry width="50" height="50" relative="1" as="geometry">
            <mxPoint x="240" y="310" as="sourcePoint" />
            <mxPoint x="290" y="260" as="targetPoint" />
          </mxGeometry>
        </mxCell>
        <mxCell id="dQye1qdH2Gw97mPW6RtZ-17" value="/var/www/html" style="edgeLabel;html=1;align=center;verticalAlign=middle;resizable=0;points=[];" vertex="1" connectable="0" parent="dQye1qdH2Gw97mPW6RtZ-11">
          <mxGeometry x="-0.3126" y="3" relative="1" as="geometry">
            <mxPoint x="-18" y="-7" as="offset" />
          </mxGeometry>
        </mxCell>
        <mxCell id="dQye1qdH2Gw97mPW6RtZ-18" value="/home/ec2-user/data" style="text;html=1;align=center;verticalAlign=middle;resizable=0;points=[];autosize=1;strokeColor=none;fillColor=none;" vertex="1" parent="dQye1qdH2Gw97mPW6RtZ-1">
          <mxGeometry x="370" y="50.129999999999995" width="130" height="30" as="geometry" />
        </mxCell>
        <mxCell id="dQye1qdH2Gw97mPW6RtZ-3" value="Amazon Elastic File System" style="sketch=0;outlineConnect=0;fontColor=#232F3E;gradientColor=none;strokeColor=#ffffff;fillColor=#232F3E;dashed=0;verticalLabelPosition=middle;verticalAlign=bottom;align=center;html=1;whiteSpace=wrap;fontSize=10;fontStyle=1;spacing=3;shape=mxgraph.aws4.productIcon;prIcon=mxgraph.aws4.elastic_file_system;" vertex="1" parent="1">
          <mxGeometry x="760" y="220" width="80" height="110" as="geometry" />
        </mxCell>
        <mxCell id="dQye1qdH2Gw97mPW6RtZ-19" value="" style="endArrow=classic;html=1;rounded=0;exitX=1.08;exitY=0.55;exitDx=0;exitDy=0;exitPerimeter=0;" edge="1" parent="1" source="dQye1qdH2Gw97mPW6RtZ-8" target="dQye1qdH2Gw97mPW6RtZ-3">
          <mxGeometry width="50" height="50" relative="1" as="geometry">
            <mxPoint x="400" y="430" as="sourcePoint" />
            <mxPoint x="450" y="380" as="targetPoint" />
          </mxGeometry>
        </mxCell>
        <mxCell id="dQye1qdH2Gw97mPW6RtZ-20" value="EC2 instance contents" style="points=[[0,0],[0.25,0],[0.5,0],[0.75,0],[1,0],[1,0.25],[1,0.5],[1,0.75],[1,1],[0.75,1],[0.5,1],[0.25,1],[0,1],[0,0.75],[0,0.5],[0,0.25]];outlineConnect=0;gradientColor=none;html=1;whiteSpace=wrap;fontSize=12;fontStyle=0;container=1;pointerEvents=0;collapsible=0;recursiveResize=0;shape=mxgraph.aws4.group;grIcon=mxgraph.aws4.group_ec2_instance_contents;strokeColor=#D86613;fillColor=none;verticalAlign=top;align=left;spacingLeft=30;fontColor=#D86613;dashed=0;" vertex="1" parent="1">
          <mxGeometry x="920" y="120" width="520" height="400" as="geometry" />
        </mxCell>
        <mxCell id="dQye1qdH2Gw97mPW6RtZ-21" value="" style="rounded=1;arcSize=10;strokeColor=#6c8ebf;fillColor=#dae8fc;" vertex="1" parent="dQye1qdH2Gw97mPW6RtZ-20">
          <mxGeometry x="160" y="40" width="320" height="320" as="geometry" />
        </mxCell>
        <mxCell id="dQye1qdH2Gw97mPW6RtZ-22" value="" style="image;sketch=0;aspect=fixed;html=1;points=[];align=center;fontSize=12;image=img/lib/mscae/Docker.svg;" vertex="1" parent="dQye1qdH2Gw97mPW6RtZ-20">
          <mxGeometry x="356.46" y="290" width="67.08" height="55" as="geometry" />
        </mxCell>
        <mxCell id="dQye1qdH2Gw97mPW6RtZ-23" value="Wordpress" style="rounded=1;whiteSpace=wrap;html=1;" vertex="1" parent="dQye1qdH2Gw97mPW6RtZ-20">
          <mxGeometry x="330" y="70" width="120" height="60" as="geometry" />
        </mxCell>
        <mxCell id="dQye1qdH2Gw97mPW6RtZ-24" value="PhpMyAdmin" style="rounded=1;whiteSpace=wrap;html=1;" vertex="1" parent="dQye1qdH2Gw97mPW6RtZ-20">
          <mxGeometry x="330" y="210" width="120" height="60" as="geometry" />
        </mxCell>
        <mxCell id="dQye1qdH2Gw97mPW6RtZ-25" value="WP-Cli" style="rounded=1;whiteSpace=wrap;html=1;" vertex="1" parent="dQye1qdH2Gw97mPW6RtZ-20">
          <mxGeometry x="330" y="140" width="120" height="60" as="geometry" />
        </mxCell>
        <mxCell id="dQye1qdH2Gw97mPW6RtZ-26" value="" style="html=1;verticalLabelPosition=bottom;align=center;labelBackgroundColor=#ffffff;verticalAlign=top;strokeWidth=2;strokeColor=#0080F0;shadow=0;dashed=0;shape=mxgraph.ios7.icons.folder;" vertex="1" parent="dQye1qdH2Gw97mPW6RtZ-20">
          <mxGeometry x="50" y="80.25" width="50" height="39.75" as="geometry" />
        </mxCell>
        <mxCell id="dQye1qdH2Gw97mPW6RtZ-27" value="" style="endArrow=classic;html=1;rounded=0;exitX=0;exitY=0.5;exitDx=0;exitDy=0;" edge="1" parent="dQye1qdH2Gw97mPW6RtZ-20" source="dQye1qdH2Gw97mPW6RtZ-23">
          <mxGeometry width="50" height="50" relative="1" as="geometry">
            <mxPoint x="320" y="90" as="sourcePoint" />
            <mxPoint x="100" y="100" as="targetPoint" />
          </mxGeometry>
        </mxCell>
        <mxCell id="dQye1qdH2Gw97mPW6RtZ-28" value="/var/www/html" style="edgeLabel;html=1;align=center;verticalAlign=middle;resizable=0;points=[];" vertex="1" connectable="0" parent="dQye1qdH2Gw97mPW6RtZ-27">
          <mxGeometry x="-0.075" y="-2" relative="1" as="geometry">
            <mxPoint x="26" y="-12" as="offset" />
          </mxGeometry>
        </mxCell>
        <mxCell id="dQye1qdH2Gw97mPW6RtZ-29" value="" style="edgeStyle=segmentEdgeStyle;endArrow=classic;html=1;curved=0;rounded=0;endSize=8;startSize=8;exitX=0;exitY=0.5;exitDx=0;exitDy=0;" edge="1" parent="dQye1qdH2Gw97mPW6RtZ-20" source="dQye1qdH2Gw97mPW6RtZ-25" target="dQye1qdH2Gw97mPW6RtZ-26">
          <mxGeometry width="50" height="50" relative="1" as="geometry">
            <mxPoint x="180" y="310" as="sourcePoint" />
            <mxPoint x="230" y="260" as="targetPoint" />
          </mxGeometry>
        </mxCell>
        <mxCell id="dQye1qdH2Gw97mPW6RtZ-30" value="/var/www/html" style="edgeLabel;html=1;align=center;verticalAlign=middle;resizable=0;points=[];" vertex="1" connectable="0" parent="dQye1qdH2Gw97mPW6RtZ-29">
          <mxGeometry x="-0.3126" y="3" relative="1" as="geometry">
            <mxPoint x="21" y="-23" as="offset" />
          </mxGeometry>
        </mxCell>
        <mxCell id="dQye1qdH2Gw97mPW6RtZ-31" value="/home/ec2-user/data" style="text;html=1;align=center;verticalAlign=middle;resizable=0;points=[];autosize=1;strokeColor=none;fillColor=none;" vertex="1" parent="dQye1qdH2Gw97mPW6RtZ-20">
          <mxGeometry x="10" y="40" width="130" height="30" as="geometry" />
        </mxCell>
        <mxCell id="dQye1qdH2Gw97mPW6RtZ-32" value="" style="endArrow=classic;html=1;rounded=0;exitX=-0.02;exitY=0.522;exitDx=0;exitDy=0;exitPerimeter=0;" edge="1" parent="1" source="dQye1qdH2Gw97mPW6RtZ-26" target="dQye1qdH2Gw97mPW6RtZ-3">
          <mxGeometry width="50" height="50" relative="1" as="geometry">
            <mxPoint x="634" y="232" as="sourcePoint" />
            <mxPoint x="770" y="273" as="targetPoint" />
          </mxGeometry>
        </mxCell>
        <mxCell id="dQye1qdH2Gw97mPW6RtZ-35" value="" style="endArrow=classic;html=1;rounded=0;exitX=0;exitY=0.5;exitDx=0;exitDy=0;" edge="1" parent="1" source="dQye1qdH2Gw97mPW6RtZ-21">
          <mxGeometry width="50" height="50" relative="1" as="geometry">
            <mxPoint x="900" y="430" as="sourcePoint" />
            <mxPoint x="840" y="405.7142857142858" as="targetPoint" />
          </mxGeometry>
        </mxCell>
        <mxCell id="dQye1qdH2Gw97mPW6RtZ-36" value="" style="endArrow=classic;html=1;rounded=0;exitX=1;exitY=0.5;exitDx=0;exitDy=0;" edge="1" parent="1" source="dQye1qdH2Gw97mPW6RtZ-4">
          <mxGeometry width="50" height="50" relative="1" as="geometry">
            <mxPoint x="1090" y="330" as="sourcePoint" />
            <mxPoint x="760" y="405.7142857142858" as="targetPoint" />
          </mxGeometry>
        </mxCell>
        <mxCell id="dQye1qdH2Gw97mPW6RtZ-37" value="Amazon RDS" style="sketch=0;outlineConnect=0;fontColor=#232F3E;gradientColor=none;strokeColor=#ffffff;fillColor=#232F3E;dashed=0;verticalLabelPosition=middle;verticalAlign=bottom;align=center;html=1;whiteSpace=wrap;fontSize=10;fontStyle=1;spacing=3;shape=mxgraph.aws4.productIcon;prIcon=mxgraph.aws4.rds;" vertex="1" parent="1">
          <mxGeometry x="760" y="360" width="80" height="100" as="geometry" />
        </mxCell>
      </root>
    </mxGraphModel>
  </diagram>
</mxfile>
